<svg width="27" height="24" viewBox="0 0 27 24" fill="none" xmlns="http://www.w3.org/2000/svg">
<path fill-rule="evenodd" clip-rule="evenodd" d="M4.26945 3.19927C4.45558 3.0086 4.75735 3.00577 4.95279 3.19285C5.14824 3.37993 5.16749 3.69005 4.99639 3.89511C4.88786 4.02518 4.77213 4.28399 4.718 4.69093C4.66507 5.08878 4.67652 5.59071 4.78495 6.16388C5.00142 7.30806 5.59895 8.706 6.78277 10.0699C8.91114 12.5222 8.63726 15.0394 8.16436 16.0728L7.27113 15.6289C7.58697 14.9387 7.89718 12.8642 6.05206 10.7383C4.75245 9.24096 4.06957 7.67505 3.81736 6.34194C3.80222 6.2619 3.78861 6.1826 3.77651 6.1041C3.59418 6.84304 3.60374 7.65781 3.99353 8.46796C4.11052 8.7111 4.02352 9.0028 3.79551 9.13191C3.56751 9.26101 3.27823 9.18237 3.1371 8.95291C3.08902 8.87475 3.00596 8.75961 2.88691 8.59458L2.8869 8.59457L2.84142 8.5315C2.72261 8.36665 2.58304 8.1712 2.44375 7.95953C2.45108 8.00984 2.45943 8.06096 2.46885 8.11287C2.61545 8.92103 3.01493 9.87218 3.83356 10.7686C4.01913 10.9718 4.01453 11.2878 3.82324 11.4789C3.63194 11.67 3.32452 11.6657 3.13226 11.4692C3.04775 11.3828 2.89563 11.2536 2.68362 11.0813C2.61175 11.0229 2.53333 10.9598 2.45113 10.8936L2.45082 10.8934L2.4507 10.8933C2.30366 10.775 2.14455 10.6469 1.98926 10.5187C1.84789 10.402 1.70385 10.2803 1.56468 10.1571C1.61615 10.5456 1.72672 10.9958 1.91897 11.4809C2.32878 12.515 3.09543 13.6667 4.37821 14.6428C4.5834 14.7989 4.64266 15.0877 4.51527 15.3107C4.38788 15.5337 4.1153 15.6184 3.88482 15.5065L3.27561 15.2108C3.76746 15.6949 4.30414 16.1203 4.77049 16.3219L4.40114 17.2557C3.64711 16.9298 2.86955 16.2391 2.28114 15.6108C1.98073 15.2901 1.71596 14.9709 1.51306 14.6976C1.32468 14.4439 1.15056 14.1787 1.07982 13.98C1.01108 13.7869 1.06127 13.5721 1.20709 13.4354C1.35291 13.2987 1.56577 13.2669 1.74678 13.3547L1.83032 13.3953C1.47745 12.8776 1.20679 12.3549 1.00689 11.8505C0.537236 10.6654 0.442873 9.53819 0.639769 8.80593C0.69145 8.61373 0.848806 8.47267 1.04134 8.44595C1.23387 8.41924 1.4255 8.51187 1.53036 8.68235C1.55396 8.72073 1.58439 8.76344 1.62154 8.81024C1.57132 8.63125 1.53102 8.45518 1.49982 8.28318C1.32294 7.30815 1.43108 6.41303 1.73605 5.86464C1.84185 5.67439 2.05629 5.57842 2.26631 5.62733C2.47633 5.67623 2.63365 5.85878 2.65531 6.07872C2.66411 6.16801 2.68618 6.26521 2.71959 6.36871C2.76346 6.04663 2.83821 5.73803 2.93319 5.44814C3.2584 4.45552 3.8293 3.65015 4.26945 3.19927ZM22.4354 3.19285C22.6308 3.00577 22.9326 3.0086 23.1187 3.19927C23.5589 3.65015 24.1298 4.45552 24.455 5.44814C24.55 5.73803 24.6247 6.04663 24.6686 6.36871C24.702 6.26521 24.7241 6.16801 24.7329 6.07872C24.7545 5.85878 24.9118 5.67623 25.1219 5.62733C25.3319 5.57842 25.5463 5.67439 25.6521 5.86464C25.9571 6.41303 26.0652 7.30815 25.8883 8.28318C25.8571 8.45518 25.8169 8.63125 25.7666 8.81024C25.8038 8.76344 25.8342 8.72073 25.8578 8.68235C25.9627 8.51187 26.1543 8.41924 26.3468 8.44595C26.5394 8.47267 26.6967 8.61373 26.7484 8.80593C26.9453 9.53819 26.8509 10.6654 26.3813 11.8505C26.1814 12.3549 25.9107 12.8776 25.5579 13.3953L25.6414 13.3547C25.8224 13.2669 26.0353 13.2987 26.1811 13.4354C26.3269 13.5721 26.3771 13.7869 26.3084 13.98C26.2376 14.1787 26.0635 14.4439 25.8751 14.6976C25.6722 14.9709 25.4074 15.2901 25.107 15.6108C24.5186 16.2391 23.7411 16.9298 22.987 17.2557L22.6177 16.3219C23.084 16.1203 23.6207 15.6949 24.1126 15.2108L23.5033 15.5065C23.2729 15.6184 23.0003 15.5337 22.8729 15.3107C22.7455 15.0877 22.8048 14.7989 23.01 14.6428C24.2927 13.6667 25.0594 12.515 25.4692 11.4809C25.6615 10.9958 25.772 10.5456 25.8235 10.1571C25.6843 10.2803 25.5403 10.402 25.3989 10.5187C25.2437 10.6469 25.0846 10.7749 24.9376 10.8932L24.9374 10.8934L24.9374 10.8934C24.855 10.9596 24.7765 11.0228 24.7045 11.0813C24.4925 11.2536 24.3404 11.3828 24.2559 11.4692C24.0637 11.6657 23.7562 11.67 23.5649 11.4789C23.3736 11.2878 23.369 10.9718 23.5546 10.7686C24.3732 9.87218 24.7727 8.92103 24.9193 8.11287C24.9287 8.06096 24.9371 8.00984 24.9444 7.95953C24.8051 8.1712 24.6656 8.36665 24.5468 8.5315L24.5013 8.59457C24.3822 8.75961 24.2992 8.87475 24.2511 8.95291C24.1099 9.18237 23.8207 9.26101 23.5927 9.13191C23.3647 9.0028 23.2777 8.7111 23.3946 8.46796C23.7844 7.65781 23.794 6.84304 23.6117 6.1041C23.5996 6.1826 23.586 6.2619 23.5708 6.34194C23.3186 7.67505 22.6357 9.24096 21.3361 10.7383C19.491 12.8642 19.8012 14.9387 20.117 15.6289L19.2238 16.0728C18.7509 15.0394 18.477 12.5222 20.6054 10.0699C21.7892 8.706 22.3868 7.30805 22.6032 6.16388C22.7117 5.59071 22.7231 5.08878 22.6702 4.69093C22.616 4.28399 22.5003 4.02518 22.3918 3.89511C22.2207 3.69005 22.2399 3.37993 22.4354 3.19285ZM11.3081 8.62499C11.3081 7.02453 12.5485 5.79166 14.0004 5.79166C15.4523 5.79166 16.6927 7.02453 16.6927 8.62499C16.6927 10.2255 15.4523 11.4583 14.0004 11.4583C12.5485 11.4583 11.3081 10.2255 11.3081 8.62499ZM14.0004 3.79166C11.3739 3.79166 9.3081 5.99128 9.3081 8.62499C9.3081 11.2587 11.3739 13.4583 14.0004 13.4583C16.6269 13.4583 18.6927 11.2587 18.6927 8.62499C18.6927 5.99128 16.6269 3.79166 14.0004 3.79166ZM7.6158 22.0415C7.61589 22.0389 7.61682 22.0129 7.62535 21.959C7.63413 21.9035 7.64903 21.8308 7.67216 21.7415C7.71851 21.5626 7.79281 21.3373 7.8995 21.0811C8.11336 20.5677 8.4433 19.9642 8.89832 19.3923C9.80308 18.2552 11.1542 17.2917 13.0773 17.2917H14.9235C16.8466 17.2917 18.1977 18.2552 19.1025 19.3923C19.5575 19.9642 19.8875 20.5677 20.1013 21.0811C20.208 21.3373 20.2823 21.5626 20.3287 21.7415C20.3518 21.8308 20.3667 21.9035 20.3755 21.959C20.384 22.0129 20.3849 22.0389 20.385 22.0415C20.385 22.0417 20.385 22.0418 20.385 22.0417C20.385 22.5939 20.8327 23.0417 21.385 23.0417C21.9373 23.0417 22.385 22.5939 22.385 22.0417C22.385 21.5794 22.21 20.9422 21.9476 20.3121C21.6711 19.6482 21.251 18.8804 20.6675 18.1471C19.4954 16.6739 17.6158 15.2917 14.9235 15.2917H13.0773C10.3851 15.2917 8.50543 16.6739 7.33326 18.1471C6.74982 18.8804 6.32976 19.6482 6.05324 20.3121C5.79082 20.9422 5.61579 21.5794 5.61579 22.0417C5.61579 22.5939 6.06351 23.0417 6.61579 23.0417C7.16808 23.0417 7.61579 22.5939 7.61579 22.0417C7.61579 22.0418 7.61579 22.0417 7.6158 22.0415Z" fill="black"/>
</svg>
