<svg width="21" height="17" viewBox="0 0 21 17" fill="none" xmlns="http://www.w3.org/2000/svg">
<path fill-rule="evenodd" clip-rule="evenodd" d="M16.741 2.46269C16.9373 2.28253 17.2474 2.28749 17.4437 2.47393C17.7894 2.80242 18.2329 3.38338 18.4862 4.10043C18.5072 4.15984 18.5269 4.22036 18.5452 4.2819C18.6157 4.20134 18.7132 4.14357 18.8258 4.12152C19.0398 4.07958 19.2596 4.17649 19.3707 4.36179C19.6196 4.77688 19.6997 5.41827 19.5772 6.09633C19.6464 6.07748 19.7206 6.07295 19.7949 6.08475C19.9925 6.11612 20.1546 6.25703 20.209 6.44467C20.3694 6.99812 20.2878 7.81674 19.9289 8.65682C19.8147 8.9241 19.6707 9.19804 19.4935 9.47192C19.5844 9.48982 19.6709 9.53182 19.7423 9.59621C19.8949 9.73395 19.9478 9.94662 19.876 10.1338C19.8151 10.2926 19.6726 10.4907 19.5322 10.6661C19.3769 10.86 19.1753 11.0854 18.947 11.3115C18.5025 11.7517 17.9058 12.2457 17.3179 12.4814L16.9182 11.5693C17.0707 11.5081 17.2356 11.4146 17.4048 11.2992C17.2641 11.2734 17.1351 11.1906 17.0563 11.0625C16.9214 10.8429 16.9785 10.5623 17.1882 10.4143C18.1326 9.74781 18.6932 8.96414 18.9915 8.2661C19.0658 8.09225 19.1228 7.92623 19.1655 7.77063L19.1546 7.77897C19.0377 7.86853 18.917 7.95863 18.8062 8.04132L18.8062 8.04133C18.7447 8.08726 18.6862 8.1309 18.6331 8.17089C18.4732 8.29142 18.3645 8.37741 18.3068 8.43216C18.1103 8.61841 17.794 8.61471 17.5958 8.42386C17.3977 8.23301 17.391 7.92547 17.5807 7.73277C17.9515 7.35618 18.2029 6.96706 18.3654 6.59788C18.3471 6.62253 18.3322 6.64336 18.3205 6.661C18.1755 6.87977 17.8777 6.94698 17.643 6.81394C17.4083 6.6809 17.3189 6.39419 17.4396 6.16159C17.5701 5.90993 17.6403 5.65805 17.6642 5.41096C17.3971 6.21073 16.9053 7.08148 16.1219 7.91872C14.7717 9.36162 15.0175 10.7439 15.2256 11.1656L14.3339 11.5704C14.8737 11.914 15.324 12.3268 15.689 12.7523C16.1468 13.2859 16.4776 13.846 16.6968 14.3342C16.8994 14.7852 17.055 15.2825 17.055 15.6795C17.055 16.2318 16.6073 16.6795 16.055 16.6795C15.5027 16.6795 15.055 16.2318 15.055 15.6795C15.055 15.6856 15.0542 15.682 15.0514 15.6689C15.0409 15.6205 15.0024 15.4431 14.8723 15.1535C14.7238 14.8226 14.4921 14.4287 14.171 14.0544C13.5375 13.3159 12.5856 12.6795 11.2089 12.6795H9.82425C8.44751 12.6795 7.49563 13.3159 6.86211 14.0544C6.54104 14.4287 6.30937 14.8226 6.16078 15.1535C6.03072 15.4431 5.99222 15.6205 5.98173 15.6689C5.97889 15.682 5.9781 15.6856 5.9781 15.6795C5.9781 16.2318 5.53039 16.6795 4.9781 16.6795C4.42582 16.6795 3.9781 16.2318 3.9781 15.6795C3.9781 15.2825 4.13374 14.7852 4.33629 14.3342C4.55549 13.846 4.88632 13.2859 5.34409 12.7523C6.26827 11.6749 7.73946 10.6795 9.82425 10.6795H11.2089C12.4514 10.6795 13.4759 11.0331 14.2966 11.5468C13.9241 10.752 13.7596 8.96641 15.3667 7.24893C16.2408 6.31483 16.677 5.36275 16.8341 4.59258C16.9129 4.20642 16.92 3.87378 16.883 3.61628C16.8448 3.34956 16.7657 3.20322 16.713 3.14464C16.5324 2.94387 16.5447 2.64286 16.741 2.46269ZM8.74733 6.34617C8.74733 5.46093 9.50354 4.6795 10.5166 4.6795C11.5296 4.6795 12.2858 5.46093 12.2858 6.34617C12.2858 7.2314 11.5296 8.01283 10.5166 8.01283C9.50354 8.01283 8.74733 7.2314 8.74733 6.34617ZM10.5166 2.6795C8.47078 2.6795 6.74733 4.28589 6.74733 6.34617C6.74733 8.40645 8.47078 10.0128 10.5166 10.0128C12.5623 10.0128 14.2858 8.40645 14.2858 6.34617C14.2858 4.28589 12.5623 2.6795 10.5166 2.6795ZM3.12999 2.47393C3.32622 2.28749 3.63636 2.28253 3.83263 2.46269C4.0289 2.64286 4.04127 2.94387 3.86066 3.14464C3.80796 3.20322 3.72886 3.34956 3.69061 3.61628C3.65367 3.87378 3.66077 4.20642 3.73953 4.59258C3.89662 5.36275 4.33282 6.31483 5.2069 7.24893C6.83684 8.99079 6.64456 10.8027 6.26107 11.58L5.34806 11.1656C5.55612 10.7439 5.80192 9.36162 4.45173 7.91872C3.66829 7.08148 3.17656 6.21073 2.90947 5.41096C2.93334 5.65805 3.00353 5.90993 3.13407 6.16159C3.25473 6.39419 3.16532 6.6809 2.93064 6.81394C2.69596 6.94698 2.39818 6.87977 2.25311 6.661C2.24141 6.64336 2.22653 6.62253 2.20821 6.59788C2.37072 6.96706 2.62213 7.35618 2.99292 7.73277C3.18266 7.92547 3.17593 8.23301 2.97781 8.42386C2.77968 8.61471 2.46332 8.61841 2.26687 8.43216C2.20911 8.37741 2.1004 8.29142 1.9405 8.17089C1.88753 8.13096 1.82916 8.0874 1.76774 8.04155L1.76743 8.04132L1.76732 8.04123C1.65657 7.95857 1.5359 7.8685 1.41901 7.77897L1.40813 7.77063C1.45083 7.92623 1.50789 8.09225 1.58217 8.2661C1.88042 8.96414 2.44106 9.74781 3.38543 10.4143C3.59518 10.5623 3.65226 10.8429 3.51731 11.0625C3.43857 11.1906 3.30952 11.2734 3.16888 11.2992C3.338 11.4146 3.50298 11.5081 3.65545 11.5693L3.25579 12.4814C2.6678 12.2457 2.07112 11.7517 1.62668 11.3115C1.39839 11.0854 1.19672 10.86 1.04146 10.6661C0.90105 10.4907 0.758589 10.2926 0.697635 10.1338C0.625807 9.94662 0.678722 9.73395 0.831392 9.59621C0.90276 9.53182 0.989253 9.48982 1.08017 9.47192C0.902925 9.19804 0.758935 8.9241 0.644738 8.65682C0.285805 7.81674 0.204217 6.99812 0.36466 6.44467C0.419055 6.25703 0.581186 6.11612 0.778774 6.08475C0.853085 6.07295 0.927202 6.07748 0.996475 6.09633C0.873978 5.41827 0.954064 4.77688 1.20293 4.36179C1.31403 4.17649 1.53384 4.07959 1.74789 4.12152C1.8604 4.14357 1.95794 4.20134 2.02843 4.2819C2.0467 4.22036 2.06643 4.15984 2.08742 4.10043C2.3407 3.38338 2.78426 2.80242 3.12999 2.47393Z" fill="#68EDCB"/>
</svg>
