<svg width="24" height="24" viewBox="0 0 24 24" fill="none" xmlns="http://www.w3.org/2000/svg">
<path d="M5.6 5.6V9.8M17.6 5.6V9.8M17 14H19.4C20.3941 14 21.2 13.1941 21.2 12.2V3.8C21.2 2.80589 20.3941 2 19.4 2H3.8C2.80589 2 2 2.80589 2 3.8V12.2C2 13.1941 2.80589 14 3.8 14H6.2M8.20493 17.8057L11.599 21.1998M11.599 21.1998L14.7645 18.0343M11.599 21.1998L11.5992 14.2575M14 8C14 9.32548 12.9255 10.4 11.6 10.4C10.2745 10.4 9.2 9.32548 9.2 8C9.2 6.67452 10.2745 5.6 11.6 5.6C12.9255 5.6 14 6.67452 14 8Z" stroke="black" stroke-width="2" stroke-linecap="round" stroke-linejoin="round"/>
</svg>
