<svg width="388" height="265" viewBox="0 0 388 265" fill="none" xmlns="http://www.w3.org/2000/svg">
<path d="M0.0166016 44C0.0166016 19.6995 19.7161 0 44.0166 0H147.555C156.016 0 164.298 2.43976 171.408 7.02695L211.625 32.9731C218.735 37.5602 227.017 40 235.478 40H343.017C367.317 40 387.017 59.6995 387.017 84V221C387.017 245.301 367.317 265 343.017 265H44.0166C19.7161 265 0.0166016 245.301 0.0166016 221V44Z" fill="#68EDCB"/>
<g filter="url(#filter0_d_5685_70508)">
<rect x="18.415" y="66.4346" width="154" height="169" rx="12" transform="rotate(-3.20349 18.415 66.4346)" fill="#EEEEEE"/>
<rect x="34.4531" y="84.5667" width="125" height="12" rx="6" transform="rotate(-3.20349 34.4531 84.5667)" fill="#DBDBDB"/>
<rect x="35.3477" y="100.542" width="51" height="12" rx="6" transform="rotate(-3.20349 35.3477 100.542)" fill="#DBDBDB"/>
<rect x="36.2412" y="116.517" width="125" height="12" rx="6" transform="rotate(-3.20349 36.2412 116.517)" fill="#EEEEEE"/>
<rect x="37.1357" y="132.492" width="96" height="12" rx="6" transform="rotate(-3.20349 37.1357 132.492)" fill="#DBDBDB"/>
<rect x="38.0293" y="148.467" width="125" height="12" rx="6" transform="rotate(-3.20349 38.0293 148.467)" fill="#DBDBDB"/>
<rect x="38.9238" y="164.442" width="51" height="12" rx="6" transform="rotate(-3.20349 38.9238 164.442)" fill="#DBDBDB"/>
</g>
<g filter="url(#filter1_d_5685_70508)">
<rect x="115.442" y="68.667" width="154" height="169" rx="12" transform="rotate(2.54263 115.442 68.667)" fill="#EEEEEE"/>
<rect x="129.585" y="88.3137" width="125" height="12" rx="6" transform="rotate(2.54263 129.585 88.3137)" fill="#DBDBDB"/>
<rect x="128.875" y="104.298" width="51" height="12" rx="6" transform="rotate(2.54263 128.875 104.298)" fill="#EEEEEE"/>
<rect x="128.165" y="120.282" width="125" height="12" rx="6" transform="rotate(2.54263 128.165 120.282)" fill="#EEEEEE"/>
<rect x="127.455" y="136.266" width="96" height="12" rx="6" transform="rotate(2.54263 127.455 136.266)" fill="#DBDBDB"/>
<rect x="126.746" y="152.251" width="125" height="12" rx="6" transform="rotate(2.54263 126.746 152.251)" fill="#DBDBDB"/>
<rect x="126.036" y="168.235" width="51" height="12" rx="6" transform="rotate(2.54263 126.036 168.235)" fill="#DBDBDB"/>
</g>
<g filter="url(#filter2_dd_5685_70508)">
<rect x="211.017" y="62" width="154" height="169" rx="12" fill="#EEEEEE"/>
<rect x="226.017" y="81" width="62" height="12" rx="6" fill="#DBDBDB"/>
<rect x="226.017" y="97" width="96" height="12" rx="6" fill="#EEEEEE"/>
<rect x="226.017" y="113" width="125" height="12" rx="6" fill="#DBDBDB"/>
<rect x="226.017" y="129" width="51" height="12" rx="6" fill="#DBDBDB"/>
<rect x="226.017" y="145" width="125" height="12" rx="6" fill="#DBDBDB"/>
<rect x="226.017" y="161" width="51" height="12" rx="6" fill="#DBDBDB"/>
</g>
<path d="M0.0166016 140H387.017V221C387.017 245.301 367.317 265 343.017 265H44.0166C19.7161 265 0.0166016 245.301 0.0166016 221V140Z" fill="#43C4B2"/>
<path d="M32.072 176.728V169.832H34.312V176.744C34.312 178.28 35.144 179.08 36.568 179.08C38.008 179.08 38.84 178.28 38.84 176.744V169.832H41.096V176.728C41.096 179.672 38.984 181.112 36.536 181.112C34.088 181.112 32.072 179.672 32.072 176.728ZM45.5243 174.904H47.3003C48.5643 174.904 49.1243 174.28 49.1243 173.288C49.1243 172.264 48.5643 171.656 47.3003 171.656H45.5243V174.904ZM51.4283 173.288C51.4283 174.984 50.2763 176.712 47.3963 176.712H45.5243V181H43.2843V169.832H47.3963C50.0843 169.832 51.4283 171.352 51.4283 173.288ZM53.0426 169.832H55.2826V179.224H58.9626V181H53.0426V169.832ZM71.3064 175.384C71.3064 178.744 68.7624 181.112 65.5944 181.112C62.4424 181.112 59.8664 178.744 59.8664 175.384C59.8664 172.04 62.4424 169.672 65.5944 169.672C68.7784 169.672 71.3064 172.04 71.3064 175.384ZM62.1704 175.384C62.1704 177.656 63.5624 179.112 65.5944 179.112C67.6104 179.112 69.0024 177.656 69.0024 175.384C69.0024 173.112 67.6104 171.688 65.5944 171.688C63.5624 171.688 62.1704 173.112 62.1704 175.384ZM80.5809 181L79.8449 178.872H75.3969L74.6609 181H72.3089L76.3249 169.816H78.9329L82.9489 181H80.5809ZM79.2369 177.08L77.6209 172.408L76.0049 177.08H79.2369ZM88.378 169.832C91.946 169.832 94.266 172.04 94.266 175.432C94.266 178.808 91.946 181 88.378 181H84.474V169.832H88.378ZM86.714 179.096H88.298C90.65 179.096 91.978 177.752 91.978 175.432C91.978 173.112 90.65 171.72 88.298 171.72H86.714V179.096ZM102.447 169.816V171.64H98.2068V174.44H101.967V176.216H98.2068V179.176H102.447V181H95.9668V169.816H102.447ZM108.41 169.832C111.978 169.832 114.298 172.04 114.298 175.432C114.298 178.808 111.978 181 108.41 181H104.506V169.832H108.41ZM106.746 179.096H108.33C110.682 179.096 112.01 177.752 112.01 175.432C112.01 173.112 110.682 171.72 108.33 171.72H106.746V179.096ZM123.74 169.832C127.308 169.832 129.628 172.04 129.628 175.432C129.628 178.808 127.308 181 123.74 181H119.836V169.832H123.74ZM122.076 179.096H123.66C126.012 179.096 127.34 177.752 127.34 175.432C127.34 173.112 126.012 171.72 123.66 171.72H122.076V179.096ZM142.224 175.384C142.224 178.744 139.68 181.112 136.512 181.112C133.36 181.112 130.784 178.744 130.784 175.384C130.784 172.04 133.36 169.672 136.512 169.672C139.696 169.672 142.224 172.04 142.224 175.384ZM133.088 175.384C133.088 177.656 134.48 179.112 136.512 179.112C138.528 179.112 139.92 177.656 139.92 175.384C139.92 173.112 138.528 171.688 136.512 171.688C134.48 171.688 133.088 173.112 133.088 175.384ZM143.371 175.4C143.371 172.056 145.819 169.688 149.035 169.688C151.515 169.688 153.531 171.016 154.283 173.304H151.707C151.179 172.232 150.219 171.704 149.019 171.704C147.067 171.704 145.675 173.128 145.675 175.4C145.675 177.656 147.067 179.096 149.019 179.096C150.219 179.096 151.179 178.568 151.707 177.48H154.283C153.531 179.784 151.515 181.096 149.035 181.096C145.819 181.096 143.371 178.744 143.371 175.4ZM156.188 176.728V169.832H158.428V176.744C158.428 178.28 159.26 179.08 160.684 179.08C162.124 179.08 162.956 178.28 162.956 176.744V169.832H165.212V176.728C165.212 179.672 163.1 181.112 160.652 181.112C158.204 181.112 156.188 179.672 156.188 176.728ZM167.4 181V169.832H169.944L173.496 178.136L177.048 169.832H179.576V181H177.336V173.736L174.344 181H172.648L169.64 173.736V181H167.4ZM188.295 169.816V171.64H184.055V174.44H187.815V176.216H184.055V179.176H188.295V181H181.815V169.816H188.295ZM197.667 169.816H199.907V181H197.667L192.595 173.336V181H190.355V169.816H192.595L197.667 177.496V169.816ZM201.552 171.64V169.832H209.744V171.64H206.768V181H204.528V171.64H201.552ZM219.211 177.768C219.211 179.528 217.803 181.112 215.259 181.112C212.939 181.112 211.147 179.896 211.115 177.784H213.515C213.579 178.68 214.171 179.272 215.211 179.272C216.267 179.272 216.891 178.712 216.891 177.912C216.891 175.496 211.131 176.952 211.147 172.904C211.147 170.888 212.779 169.672 215.083 169.672C217.371 169.672 218.939 170.84 219.083 172.856H216.619C216.571 172.12 215.979 171.544 215.019 171.528C214.139 171.496 213.483 171.928 213.483 172.84C213.483 175.08 219.211 173.832 219.211 177.768Z" fill="white"/>
<path d="M358 175C358 175.552 358.448 176 359 176C359.552 176 360 175.552 360 175C360 174.448 359.552 174 359 174C358.448 174 358 174.448 358 175Z" stroke="white" stroke-width="2" stroke-linecap="round" stroke-linejoin="round"/>
<path d="M352 175C352 175.552 352.448 176 353 176C353.552 176 354 175.552 354 175C354 174.448 353.552 174 353 174C352.448 174 352 174.448 352 175Z" stroke="white" stroke-width="2" stroke-linecap="round" stroke-linejoin="round"/>
<path d="M346 175C346 175.552 346.448 176 347 176C347.552 176 348 175.552 348 175C348 174.448 347.552 174 347 174C346.448 174 346 174.448 346 175Z" stroke="white" stroke-width="2" stroke-linecap="round" stroke-linejoin="round"/>
<path d="M31.72 201.508C31.828 200.02 32.956 199.156 34.564 199.156C36.256 199.156 37.18 200.14 37.18 201.388C37.18 202.384 36.556 203.164 35.644 203.368V203.428C36.652 203.668 37.336 204.412 37.336 205.66C37.336 207.004 36.4 208.06 34.588 208.06C32.944 208.06 31.72 207.184 31.588 205.504H32.644C32.752 206.428 33.424 207.136 34.576 207.136C35.74 207.136 36.292 206.452 36.292 205.564C36.292 204.34 35.44 203.872 33.88 203.872H33.604V202.96H33.892C35.344 202.948 36.124 202.504 36.124 201.496C36.124 200.668 35.572 200.092 34.528 200.092C33.508 200.092 32.896 200.668 32.788 201.508H31.72Z" fill="white"/>
<defs>
<filter id="filter0_d_5685_70508" x="11.0664" y="50.4802" width="169.9" height="184.039" filterUnits="userSpaceOnUse" color-interpolation-filters="sRGB">
<feFlood flood-opacity="0" result="BackgroundImageFix"/>
<feColorMatrix in="SourceAlpha" type="matrix" values="0 0 0 0 0 0 0 0 0 0 0 0 0 0 0 0 0 0 127 0" result="hardAlpha"/>
<feOffset dx="-4" dy="-4"/>
<feGaussianBlur stdDeviation="2"/>
<feComposite in2="hardAlpha" operator="out"/>
<feColorMatrix type="matrix" values="0 0 0 0 0 0 0 0 0 0 0 0 0 0 0 0 0 0 0.12 0"/>
<feBlend mode="normal" in2="BackgroundImageFix" result="effect1_dropShadow_5685_70508"/>
<feBlend mode="normal" in="SourceGraphic" in2="effect1_dropShadow_5685_70508" result="shape"/>
</filter>
<filter id="filter1_d_5685_70508" x="100.466" y="61.1873" width="168.305" height="182.625" filterUnits="userSpaceOnUse" color-interpolation-filters="sRGB">
<feFlood flood-opacity="0" result="BackgroundImageFix"/>
<feColorMatrix in="SourceAlpha" type="matrix" values="0 0 0 0 0 0 0 0 0 0 0 0 0 0 0 0 0 0 127 0" result="hardAlpha"/>
<feOffset dx="-4" dy="-4"/>
<feGaussianBlur stdDeviation="2"/>
<feComposite in2="hardAlpha" operator="out"/>
<feColorMatrix type="matrix" values="0 0 0 0 0 0 0 0 0 0 0 0 0 0 0 0 0 0 0.04 0"/>
<feBlend mode="normal" in2="BackgroundImageFix" result="effect1_dropShadow_5685_70508"/>
<feBlend mode="normal" in="SourceGraphic" in2="effect1_dropShadow_5685_70508" result="shape"/>
</filter>
<filter id="filter2_dd_5685_70508" x="201.017" y="50" width="176" height="185" filterUnits="userSpaceOnUse" color-interpolation-filters="sRGB">
<feFlood flood-opacity="0" result="BackgroundImageFix"/>
<feColorMatrix in="SourceAlpha" type="matrix" values="0 0 0 0 0 0 0 0 0 0 0 0 0 0 0 0 0 0 127 0" result="hardAlpha"/>
<feOffset dx="-4" dy="-4"/>
<feGaussianBlur stdDeviation="3"/>
<feComposite in2="hardAlpha" operator="out"/>
<feColorMatrix type="matrix" values="0 0 0 0 0 0 0 0 0 0 0 0 0 0 0 0 0 0 0.04 0"/>
<feBlend mode="normal" in2="BackgroundImageFix" result="effect1_dropShadow_5685_70508"/>
<feColorMatrix in="SourceAlpha" type="matrix" values="0 0 0 0 0 0 0 0 0 0 0 0 0 0 0 0 0 0 127 0" result="hardAlpha"/>
<feOffset dx="4" dy="-4"/>
<feGaussianBlur stdDeviation="4"/>
<feComposite in2="hardAlpha" operator="out"/>
<feColorMatrix type="matrix" values="0 0 0 0 0 0 0 0 0 0 0 0 0 0 0 0 0 0 0.1 0"/>
<feBlend mode="normal" in2="effect1_dropShadow_5685_70508" result="effect2_dropShadow_5685_70508"/>
<feBlend mode="normal" in="SourceGraphic" in2="effect2_dropShadow_5685_70508" result="shape"/>
</filter>
</defs>
</svg>
