<svg width="174" height="50" viewBox="0 0 174 50" fill="none" xmlns="http://www.w3.org/2000/svg">
<path d="M40.4391 48.715C31.1207 48.715 23.5469 41.1141 23.5469 31.7785C23.5469 22.4429 31.1279 14.842 40.4391 14.842C49.7503 14.842 57.3313 22.4429 57.3313 31.7785C57.3313 41.1141 49.7503 48.715 40.4391 48.715ZM40.4391 21.0609C34.5451 21.0609 29.7495 25.8691 29.7495 31.7785C29.7495 37.6879 34.5451 42.4961 40.4391 42.4961C46.3331 42.4961 51.1287 37.6879 51.1287 31.7785C51.1287 25.8691 46.3331 21.0609 40.4391 21.0609Z" fill="black"/>
<path d="M82.5875 33.8731C73.2692 33.8731 65.6953 26.2721 65.6953 16.9365C65.6953 7.60092 73.2764 0 82.5875 0C91.8987 0 99.4798 7.60092 99.4798 16.9365C99.4798 26.2721 91.8987 33.8731 82.5875 33.8731ZM82.5875 6.21895C76.6936 6.21895 71.898 11.0271 71.898 16.9365C71.898 22.846 76.6936 27.6541 82.5875 27.6541C88.4815 27.6541 93.2771 22.846 93.2771 16.9365C93.2771 11.0271 88.4815 6.21895 82.5875 6.21895Z" fill="black"/>
<path d="M71.898 17.6203H65.6953V48.715H71.898V17.6203Z" fill="black"/>
<path d="M136.954 48.715H130.005L122.503 33.6643L116.874 40.5455L111.253 33.6643L103.744 48.715H96.8232L109.99 22.3061L116.874 30.742L123.78 22.3061L136.954 48.715Z" fill="black"/>
<path d="M11.0342 48.715C8.75122 48.715 5.48477 48.2904 3.0439 46.2246C1.65835 45.0513 0 42.8632 0 39.1419V1.43958H6.20267V39.1419C6.20267 40.5887 6.67649 41.1645 7.03544 41.4668C8.38509 42.6257 11.4146 42.5825 12.6638 42.3809L13.6832 48.5135C13.4319 48.5567 12.4125 48.715 11.027 48.715H11.0342Z" fill="black"/>
<path d="M16.2603 15.9504H2.18945V22.1694H16.2603V15.9504Z" fill="black"/>
<path d="M116.939 22.2845C111.526 22.2845 107.118 17.8651 107.118 12.4379C107.118 7.0107 111.526 2.59123 116.939 2.59123C122.352 2.59123 126.76 7.0107 126.76 12.4379C126.76 17.8651 122.352 22.2845 116.939 22.2845ZM116.939 3.62772C112.093 3.62772 108.152 7.57933 108.152 12.4379C108.152 17.2964 112.093 21.248 116.939 21.248C121.785 21.248 125.726 17.2964 125.726 12.4379C125.726 7.57933 121.785 3.62772 116.939 3.62772Z" fill="#43C4B2"/>
<path d="M126.243 13.9926C125.388 13.9926 124.692 13.2944 124.692 12.4379C124.692 8.14796 121.217 4.66421 116.939 4.66421C112.66 4.66421 109.185 8.14796 109.185 12.4379C109.185 13.2944 108.489 13.9926 107.635 13.9926C106.78 13.9926 106.084 13.2944 106.084 12.4379C106.084 6.43487 110.951 1.55473 116.939 1.55473C122.926 1.55473 127.793 6.43487 127.793 12.4379C127.793 13.2944 127.097 13.9926 126.243 13.9926Z" fill="#43C4B2"/>
<path d="M171.801 29.8855C170.796 22.083 164.12 16.0368 156.065 16.0368C147.314 16.0368 140.199 23.1771 140.199 31.944C140.199 40.711 147.314 47.8513 156.065 47.8513C159.913 47.8513 163.624 46.4549 166.518 43.9141L163.919 40.9414C161.743 42.8488 158.958 43.8997 156.065 43.8997C150.135 43.8997 145.203 39.5378 144.291 33.8443H171.816C171.895 33.2181 171.93 32.5847 171.93 31.9513C171.93 31.2531 171.887 30.5693 171.794 29.8927L171.801 29.8855ZM144.327 29.8855C145.304 24.2711 150.2 19.9956 156.072 19.9956C161.944 19.9956 166.841 24.2783 167.817 29.8855H144.327Z" fill="black" stroke="black" stroke-width="3" stroke-miterlimit="10"/>
</svg>
