<svg width="17" height="16" viewBox="0 0 17 16" fill="none" xmlns="http://www.w3.org/2000/svg">
<path d="M5.87602 8C5.87602 6.5273 7.07028 5.33312 8.54386 5.33312C10.0175 5.33312 11.2123 6.5273 11.2123 8C11.2123 9.4727 10.0175 10.6669 8.54386 10.6669C7.07028 10.6669 5.87602 9.4727 5.87602 8ZM4.43349 8C4.43349 10.2688 6.2737 12.1079 8.54386 12.1079C10.814 12.1079 12.6542 10.2688 12.6542 8C12.6542 5.7312 10.814 3.8921 8.54386 3.8921C6.2737 3.8921 4.43349 5.7312 4.43349 8ZM11.8564 3.72922C11.8563 3.91909 11.9126 4.10471 12.0181 4.26263C12.1235 4.42054 12.2735 4.54365 12.449 4.61638C12.6245 4.68911 12.8176 4.7082 13.004 4.67123C13.1903 4.63426 13.3615 4.5429 13.4959 4.40869C13.6303 4.27449 13.7219 4.10347 13.759 3.91726C13.7961 3.73106 13.7772 3.53802 13.7046 3.36258C13.6319 3.18713 13.5089 3.03715 13.3509 2.9316C13.193 2.82605 13.0073 2.76968 12.8173 2.7696H12.817C12.5623 2.76972 12.3181 2.87085 12.138 3.05077C11.9579 3.2307 11.8566 3.47471 11.8564 3.72922ZM5.30992 14.5118C4.52949 14.4763 4.1053 14.3464 3.8234 14.2366C3.44967 14.0912 3.18302 13.918 2.90266 13.6382C2.6223 13.3584 2.44875 13.0922 2.3039 12.7187C2.19401 12.4371 2.06401 12.013 2.02853 11.233C1.98972 10.3898 1.98198 10.1364 1.98198 8.00006C1.98198 5.86368 1.99036 5.61107 2.02853 4.7671C2.06407 3.98714 2.19503 3.5639 2.3039 3.28147C2.44939 2.90797 2.62268 2.64147 2.90266 2.36128C3.18263 2.08109 3.44903 1.90765 3.8234 1.76288C4.10517 1.65306 4.52949 1.52314 5.30992 1.48768C6.15369 1.4489 6.40716 1.44115 8.54386 1.44115C10.6806 1.44115 10.9343 1.44954 11.7788 1.48768C12.5592 1.5232 12.9827 1.65408 13.2653 1.76288C13.639 1.90765 13.9057 2.08147 14.186 2.36128C14.4664 2.64109 14.6393 2.90797 14.7848 3.28147C14.8947 3.56307 15.0247 3.98714 15.0602 4.7671C15.099 5.61107 15.1067 5.86368 15.1067 8.00006C15.1067 10.1364 15.099 10.3891 15.0602 11.233C15.0246 12.013 14.894 12.4369 14.7848 12.7187C14.6393 13.0922 14.466 13.3587 14.186 13.6382C13.9061 13.9178 13.639 14.0912 13.2653 14.2366C12.9835 14.3464 12.5592 14.4764 11.7788 14.5118C10.935 14.5506 10.6815 14.5583 8.54386 14.5583C6.4062 14.5583 6.15344 14.5506 5.30992 14.5118ZM5.24364 0.048448C4.39148 0.087232 3.80918 0.222272 3.30065 0.420032C2.774 0.624256 2.32817 0.89824 1.88265 1.34278C1.43714 1.78733 1.16369 2.2336 0.959347 2.75994C0.761468 3.26848 0.626347 3.85011 0.58754 4.70176C0.548092 5.55475 0.539062 5.82746 0.539062 8C0.539062 10.1725 0.548092 10.4452 0.58754 11.2982C0.626347 12.15 0.761468 12.7315 0.959347 13.2401C1.16369 13.7661 1.4372 14.2129 1.88265 14.6572C2.3281 15.1016 2.774 15.3752 3.30065 15.58C3.81014 15.7777 4.39148 15.9128 5.24364 15.9516C6.0976 15.9903 6.37002 16 8.54386 16C10.7177 16 10.9906 15.991 11.8441 15.9516C12.6963 15.9128 13.2782 15.7777 13.7871 15.58C14.3134 15.3752 14.7596 15.1018 15.2051 14.6572C15.6506 14.2127 15.9235 13.7661 16.1284 13.2401C16.3263 12.7315 16.462 12.1499 16.5002 11.2982C16.539 10.4446 16.548 10.1725 16.548 8C16.548 5.82746 16.539 5.55475 16.5002 4.70176C16.4614 3.85005 16.3263 3.26816 16.1284 2.75994C15.9235 2.23392 15.6499 1.78803 15.2051 1.34278C14.7603 0.897536 14.3134 0.624256 13.7877 0.420032C13.2782 0.222272 12.6962 0.086592 11.8447 0.048448C10.9912 0.009664 10.7184 0 8.5445 0C6.37066 0 6.0976 0.009024 5.24364 0.048448Z" fill="#161616"/>
</svg>
