<svg width="20" height="16" viewBox="0 0 20 16" fill="none" xmlns="http://www.w3.org/2000/svg">
<path d="M19.8713 1.92204C19.2434 2.19225 18.5833 2.38041 17.9074 2.48186C18.2234 2.42769 18.6884 1.85884 18.8735 1.62859C19.1547 1.28128 19.369 0.884795 19.5056 0.459281C19.5056 0.427678 19.5372 0.382531 19.5056 0.359957C19.4897 0.351264 19.4718 0.346708 19.4537 0.346708C19.4355 0.346708 19.4177 0.351264 19.4017 0.359957C18.6677 0.757441 17.8866 1.06081 17.0767 1.2629C17.0484 1.27152 17.0184 1.27229 16.9898 1.26513C16.9611 1.25798 16.935 1.24316 16.9141 1.22226C16.8511 1.1472 16.7832 1.07632 16.711 1.01007C16.3807 0.714112 16.0059 0.47188 15.6004 0.292237C15.053 0.0676658 14.4617 -0.029591 13.8712 0.00781131C13.2983 0.0439956 12.7389 0.197671 12.2279 0.459281C11.7247 0.735093 11.2824 1.10979 10.9277 1.56087C10.5545 2.02513 10.2851 2.56393 10.1376 3.14101C10.0159 3.68993 10.0021 4.25726 10.097 4.81144C10.097 4.90625 10.097 4.9198 10.0157 4.90625C6.79672 4.43221 4.15562 3.28999 1.9976 0.838515C1.90279 0.730162 1.85313 0.730162 1.77638 0.838515C0.837322 2.26516 1.29331 4.5225 2.46713 5.63763C2.62514 5.78662 2.78767 5.93109 2.95923 6.06653C2.42104 6.02832 1.89599 5.88247 1.4152 5.63763C1.32491 5.57894 1.27525 5.61054 1.27073 5.7189C1.25793 5.86911 1.25793 6.02015 1.27073 6.17037C1.36493 6.89028 1.64865 7.57225 2.09286 8.14655C2.53707 8.72085 3.12584 9.16687 3.79896 9.439C3.96305 9.50929 4.13403 9.56225 4.30912 9.59702C3.81089 9.69511 3.29989 9.71036 2.7967 9.64216C2.68835 9.61959 2.64771 9.67828 2.68835 9.78212C3.35201 11.588 4.79219 12.1388 5.84863 12.4458C5.9931 12.4684 6.13757 12.4684 6.3001 12.5045C6.3001 12.5045 6.3001 12.5045 6.27301 12.5316C5.9615 13.1004 4.7019 13.4842 4.12402 13.6828C3.06924 14.0617 1.94465 14.2065 0.828292 14.1072C0.652219 14.0801 0.611587 14.0846 0.56644 14.1072C0.521293 14.1298 0.56644 14.1794 0.616102 14.2246C0.841837 14.3736 1.06757 14.5045 1.30234 14.6309C2.00123 15.0121 2.7401 15.3149 3.50551 15.5338C7.4694 16.6264 11.9299 15.8228 14.9051 12.8657C17.2437 10.5451 18.0654 7.34419 18.0654 4.13875C18.0654 4.01686 18.2144 3.94462 18.3002 3.88142C18.8918 3.42042 19.4134 2.87599 19.8487 2.26516C19.9241 2.1741 19.9627 2.05817 19.957 1.9401C19.957 1.87238 19.957 1.88592 19.8713 1.92204Z" fill="#161616"/>
</svg>
