<svg width="23" height="16" viewBox="0 0 23 16" fill="none" xmlns="http://www.w3.org/2000/svg">
<path fill-rule="evenodd" clip-rule="evenodd" d="M20.3843 0.476364C21.3673 0.741818 22.1399 1.51636 22.401 2.49818C22.8762 4.28 22.8762 8 22.8762 8C22.8762 8 22.8762 11.72 22.401 13.5018C22.1362 14.4873 21.3637 15.2618 20.3843 15.5236C18.6071 16 11.4762 16 11.4762 16C11.4762 16 4.34891 16 2.568 15.5236C1.58505 15.2582 0.812475 14.4836 0.551323 13.5018C0.0761719 11.72 0.0761719 8 0.0761719 8C0.0761719 8 0.0761719 4.28 0.551323 2.49818C0.816102 1.51273 1.58868 0.738182 2.568 0.476364C4.34891 0 11.4762 0 11.4762 0C11.4762 0 18.6071 0 20.3843 0.476364ZM15.1214 8L9.19835 11.4291V4.57091L15.1214 8Z" fill="#161616"/>
</svg>
