<svg width="17" height="20" viewBox="0 0 17 20" fill="none" xmlns="http://www.w3.org/2000/svg">
<path fill-rule="evenodd" clip-rule="evenodd" d="M8.51825 0.666656C1.91453 0.666656 -1.58976 8.46833 2.79788 13.4038L7.77088 18.9977C7.96065 19.2112 8.23263 19.3333 8.51825 19.3333C8.80387 19.3333 9.07585 19.2112 9.26562 18.9977L14.2386 13.4038L13.4912 12.7394L14.2386 13.4038C18.6263 8.46833 15.122 0.666656 8.51825 0.666656ZM4.29262 12.075C1.05191 8.42965 3.63979 2.66666 8.51825 2.66666C13.3967 2.66666 15.9846 8.42965 12.7439 12.075L8.51825 16.8282L4.29262 12.075ZM7.01815 8.33332C7.01815 7.5049 7.68973 6.83332 8.51815 6.83332C9.34658 6.83332 10.0182 7.5049 10.0182 8.33332C10.0182 9.16175 9.34658 9.83332 8.51815 9.83332C7.68973 9.83332 7.01815 9.16175 7.01815 8.33332ZM8.51815 4.83332C6.58516 4.83332 5.01815 6.40033 5.01815 8.33332C5.01815 10.2663 6.58516 11.8333 8.51815 11.8333C10.4511 11.8333 12.0182 10.2663 12.0182 8.33332C12.0182 6.40033 10.4511 4.83332 8.51815 4.83332Z" fill="black" fill-opacity="0.5"/>
</svg>
