<svg width="18" height="20" viewBox="0 0 18 20" fill="none" xmlns="http://www.w3.org/2000/svg">
<path fill-rule="evenodd" clip-rule="evenodd" d="M11.8499 0.666656C12.4022 0.666656 12.8499 1.11437 12.8499 1.66666V2.33332H14.3499C15.8227 2.33332 17.0166 3.52724 17.0166 4.99999V8.33332V16.6667C17.0166 18.1394 15.8227 19.3333 14.3499 19.3333H2.68327C1.21052 19.3333 0.0166016 18.1395 0.0166016 16.6667V8.33332V4.99999C0.0166016 3.52723 1.21051 2.33332 2.68327 2.33332H4.18327V1.66666C4.18327 1.11437 4.63098 0.666656 5.18327 0.666656C5.73555 0.666656 6.18327 1.11437 6.18327 1.66666V2.33332H10.8499V1.66666C10.8499 1.11437 11.2976 0.666656 11.8499 0.666656ZM4.18327 4.33332V4.99999C4.18327 5.55227 4.63098 5.99999 5.18327 5.99999C5.73555 5.99999 6.18327 5.55227 6.18327 4.99999V4.33332H10.8499V4.99999C10.8499 5.55227 11.2976 5.99999 11.8499 5.99999C12.4022 5.99999 12.8499 5.55227 12.8499 4.99999V4.33332H14.3499C14.7181 4.33332 15.0166 4.63179 15.0166 4.99999V7.33332H2.0166V4.99999C2.0166 4.6318 2.31508 4.33332 2.68327 4.33332H4.18327ZM15.0166 9.33332V16.6667C15.0166 17.0349 14.7182 17.3333 14.3499 17.3333H2.68327C2.31507 17.3333 2.0166 17.0349 2.0166 16.6667V9.33332H15.0166Z" fill="black" fill-opacity="0.5"/>
</svg>
