<svg width="21" height="19" viewBox="0 0 21 19" fill="none" xmlns="http://www.w3.org/2000/svg">
<path d="M4.11621 16.9203L5.64017 15.7012L5.65138 15.6926C5.96909 15.4384 6.12941 15.3101 6.30828 15.2188C6.46876 15.1368 6.63988 15.0771 6.81641 15.0408C7.01538 15 7.22264 15 7.63867 15H16.3197C17.4376 15 17.9972 15 18.4246 14.7822C18.8009 14.5905 19.1071 14.2842 19.2988 13.9079C19.5166 13.4805 19.5166 12.9215 19.5166 11.8036V4.19691C19.5166 3.07899 19.5166 2.5192 19.2988 2.0918C19.1071 1.71547 18.8003 1.40973 18.424 1.21799C17.9962 1 17.4369 1 16.3168 1H4.7168C3.59669 1 3.03622 1 2.6084 1.21799C2.23207 1.40973 1.92634 1.71547 1.73459 2.0918C1.5166 2.51962 1.5166 3.08009 1.5166 4.2002V15.6712C1.5166 16.7369 1.5166 17.2696 1.73506 17.5433C1.92505 17.7813 2.21304 17.9198 2.51758 17.9195C2.86775 17.9191 3.28404 17.5861 4.11621 16.9203Z" stroke="black" stroke-width="2" stroke-linecap="round" stroke-linejoin="round"/>
</svg>
